# xmcd
#
# Track frame offsets: 
#        150
#        9895
#        23722
#        39800
#        54530
#        71062
#        85967
#        104585
#        118625
#        131925
#        150890
#        161327
#        177900
#        191680
#        203137
#        220309
#        236720
#        251637
#        264960
#        281347
#        297832
#        316535
#
# Disc length: 4302 seconds
#
# Revision: 1
# Processed by: cddbd v1.5.2PL0 Copyright (c) Steve Scherf et al.
# Submitted via: ExactAudioCopy v1.3
#
DISCID=2a10cc16
DTITLE=DJ Poska - R'N'B Dancefloor
DYEAR=2001
DGENRE=R&B
TTITLE0=Put Ya Hands Up (Intro)
TTITLE1=Missy Elliot - Get Ur Freak On
TTITLE2=Destiny's Child - Bootylicious
TTITLE3=Dante Thomas Feat. Pras - Miss California
TTITLE4=Jagged Edge Feat. Jermaine Dupri, Da Brat, R.O.C., Lil Bow Wow
TTITLE4=and Tigah  - Where The Party At (11-01-01 Dupri Remix)
TTITLE5=R. Kelly - Fiesta
TTITLE6=Brandy Feat. Shaunta and Da Brat - U Don't Know Me (Radio Remix 
TTITLE6=Edit)
TTITLE7=Pyt Feat. Sarai - Same Ol' Same Ol' (Remix)
TTITLE8=Jaheim Feat. Duganz - Could It Be (Anything You Want Remix)
TTITLE9=Craig David Feat. Mdk - 7 Days (Full Crew Club Remix)
TTITLE10=Aaliyah - Try Again
TTITLE11=Lil Mo Feat. Fabolous - Superwoman Part. 2
TTITLE12=Eric Benet - Love Don't Love Me
TTITLE13=Glamma Kid Feat. Shola Ama - Taboo
TTITLE14=Mystikal - Shake Ya Ass
TTITLE15=Blaque Feat. 50 Cent - Bring It All To Me (Remix)
TTITLE16=Monifah Feat. Queen Pen - Monifah's Anthem - Bad Girl
TTITLE17=Lil' Romeo - My Baby
TTITLE18=Lil' Bow Wow Feat. Jagged Edge - Puppy Love
TTITLE19=Wyclef Jean Feat. Xzibit and King Mellowman - Perfect Gentleman
TTITLE19=(Remix Radio Edit)
TTITLE20=Krayzie Bone Feat. Sade - Hard Time Rustlin'
TTITLE21=Out Of The Dancefloor (Outro)
EXTD=
EXTT0=
EXTT1=
EXTT2=
EXTT3=
EXTT4=
EXTT5=
EXTT6=
EXTT7=
EXTT8=
EXTT9=
EXTT10=
EXTT11=
EXTT12=
EXTT13=
EXTT14=
EXTT15=
EXTT16=
EXTT17=
EXTT18=
EXTT19=
EXTT20=
EXTT21=
PLAYORDER=
